<svg width="auto" height="100%" viewBox="0 0 54 54" fill="none" xmlns="http://www.w3.org/2000/svg">
    <circle cx="30.7857" cy="30.7857" r="23.2143" fill="#4F5A41"/>
    <path d="M38.1239 44.508C42.4221 41.632 45.6369 37.403 47.2583 32.4921C48.8796 27.5811 48.8146 22.2694 47.0737 17.3996C45.3327 12.5297 42.0154 8.38068 37.6481 5.61067C33.2808 2.84066 28.1136 1.60831 22.9662 2.10914" stroke="#D6FF92" stroke-width="3" stroke-linecap="round"/>
    <path d="M13.0191 5.4613C8.6185 8.17816 5.25116 12.2867 3.45127 17.135C1.65138 21.9834 1.52201 27.294 3.08368 32.2242C4.64536 37.1545 7.80865 41.4221 12.0717 44.35C16.3348 47.2779 21.4534 48.6984 26.6157 48.3862" stroke="#D6FF92" stroke-width="3" stroke-linecap="round"/>
    <path d="M29.9228 15.0173C30.0234 15.1177 30.1032 15.2369 30.1577 15.3682C30.2122 15.4996 30.2403 15.6404 30.2403 15.7826C30.2403 15.9249 30.2122 16.0657 30.1577 16.1971C30.1032 16.3284 30.0233 16.4477 29.9226 16.5482L21.3116 25.1576L29.9229 33.7674L29.9229 33.7674C30.1259 33.9703 30.2399 34.2456 30.2399 34.5326C30.2399 34.8197 30.1259 35.0949 29.9229 35.2979C29.7199 35.5009 29.4447 35.6149 29.1576 35.6149C28.8706 35.6149 28.5953 35.5009 28.3924 35.2979L19.0177 25.9232C19.0176 25.9231 19.0175 25.923 19.0174 25.9229C18.9168 25.8225 18.837 25.7033 18.7826 25.5721C18.7281 25.4407 18.7 25.2999 18.7 25.1576C18.7 25.0154 18.7281 24.8746 18.7826 24.7432C18.837 24.612 18.9168 24.4928 19.0174 24.3924L29.9228 15.0173ZM29.9228 15.0173C29.8224 14.9168 29.7032 14.837 29.5721 14.7826C29.4407 14.7281 29.2999 14.7 29.1576 14.7C29.0154 14.7 28.8746 14.7281 28.7432 14.7826C28.612 14.837 28.4928 14.9168 28.3924 15.0174C28.3923 15.0175 28.3922 15.0176 28.3921 15.0177L19.0177 24.3921L29.9232 15.0177C29.923 15.0175 29.9229 15.0174 29.9228 15.0173Z" fill="#D6FF92" stroke="#D6FF92" stroke-width="0.6"/>
</svg>
