<svg width="36" height="29" viewBox="0 0 36 29" fill="none" xmlns="http://www.w3.org/2000/svg">
    <path fill-rule="evenodd" clip-rule="evenodd" d="M4 6C4 4.34315 5.34315 3 7 3H16.4419C18.0909 3 19.5535 3.79829 20.4642 5.02951C21.3743 4.07975 22.6555 3.4884 24.0748 3.4884H33C34.6569 3.4884 36 4.83155 36 6.4884V24.6573C36 26.3141 34.6569 27.6573 33 27.6573H22.3099C22.1923 27.9317 22.008 28.1838 21.7658 28.3949C21.3214 28.7823 20.7187 29 20.0903 29C19.4618 29 18.8591 28.7823 18.4148 28.3949C18.3156 28.3085 18.2261 28.2152 18.147 28.1163H7C5.34315 28.1163 4 26.7731 4 25.1163V6Z" fill="#4F5A41"/>
    <rect x="4.18607" y="6.97668" width="4.88372" height="2.09302" rx="1.04651" fill="#D6FF92"/>
    <rect x="4.1861" y="18.1396" width="4.88372" height="2.09302" rx="1.04651" fill="#D6FF92"/>
    <rect x="4.1861" y="12.5581" width="4.88372" height="2.09302" rx="1.04651" fill="#D6FF92"/>
    <rect x="19.5349" y="6.97668" width="4.88372" height="2.09302" rx="1.04651" fill="#D6FF92"/>
    <rect x="19.5349" y="18.1396" width="4.88372" height="2.09302" rx="1.04651" fill="#D6FF92"/>
    <rect x="19.5349" y="12.5581" width="4.88372" height="2.09302" rx="1.04651" fill="#D6FF92"/>
    <circle cx="11.5116" cy="8.0232" r="1.04651" fill="#D6FF92"/>
    <circle cx="11.5116" cy="19.1862" r="1.04651" fill="#D6FF92"/>
    <circle cx="11.5116" cy="13.6046" r="1.04651" fill="#D6FF92"/>
    <circle cx="26.8605" cy="8.0232" r="1.04651" fill="#D6FF92"/>
    <circle cx="26.8605" cy="19.1862" r="1.04651" fill="#D6FF92"/>
    <circle cx="26.8605" cy="13.6046" r="1.04651" fill="#D6FF92"/>
    <path fill-rule="evenodd" clip-rule="evenodd" d="M3 2H12.4419C13.8961 2 15.1087 3.03476 15.3835 4.40817C15.3606 4.60226 15.3488 4.79976 15.3488 5V21H17.4419V5C17.4419 4.79976 17.4301 4.60227 17.4072 4.40819C17.682 3.03477 18.8946 2 20.3488 2H29.7907C30.343 2 30.7907 2.44772 30.7907 3V6.27902H32.7907V3C32.7907 1.34315 31.4475 0 29.7907 0H20.3488C18.7408 0 17.31 0.759135 16.3954 1.93858C15.4807 0.759134 14.0499 0 12.4419 0H3C1.34315 0 0 1.34315 0 3V17.4419H2V3C2 2.44772 2.44772 2 3 2ZM2 19.5349H0V22.1163C0 23.7731 1.34315 25.1163 3 25.1163H14.1079C14.2291 25.4015 14.4191 25.6635 14.6687 25.8829C15.1266 26.2855 15.7477 26.5116 16.3954 26.5116C17.043 26.5116 17.6641 26.2855 18.122 25.8829C18.3716 25.6635 18.5616 25.4015 18.6828 25.1163H29.7907C31.4476 25.1163 32.7907 23.7731 32.7907 22.1163V8.37204H30.7907V22.1163C30.7907 22.6686 30.343 23.1163 29.7907 23.1163H18.3488C18.2871 23.1163 18.2268 23.1107 18.1682 23.1H14.6225C14.5639 23.1107 14.5036 23.1163 14.4419 23.1163H3C2.44772 23.1163 2 22.6686 2 22.1163V19.5349Z" fill="#D6FF92"/>
</svg>
