<svg height="100%" viewBox="0 0 33 35" fill="none" xmlns="http://www.w3.org/2000/svg">
    <path d="M31.852 5.09998H6.24837C5.61413 5.09998 5.09998 5.61413 5.09998 6.24837V8.71048C5.09998 9.86338 5.37805 10.9993 5.9106 12.0218C6.36632 12.8968 6.99774 13.6683 7.76534 14.288L8.1031 14.5607L14.8306 19.7111C15.1796 19.9783 15.6069 20.1231 16.0464 20.1231H22.2284C22.6795 20.1231 23.1173 19.9706 23.4708 19.6903L27.9625 16.1296L30.3028 14.2884C31.0904 13.6688 31.7372 12.8888 32.2002 12.0001C32.7256 10.9919 33 9.87168 33 8.73471V6.24797C33 5.61395 32.486 5.09998 31.852 5.09998Z" fill="#4F5A41"/>
    <path d="M21 18H17C15.8954 18 15 18.8954 15 20V33.3584C15 34.265 15.735 35 16.6416 35C17.0037 35 17.3556 34.8803 17.6426 34.6595L22.2196 31.1379C22.7117 30.7593 23 30.1737 23 29.5528V24.2688V20C23 18.8954 22.1046 18 21 18Z" fill="#4F5A41"/>
    <path d="M8.00625 13.8853L11.7398 16.6337C12.0834 16.8867 12.4989 17.0231 12.9255 17.0231H19.1284C19.5795 17.0231 20.0174 16.8706 20.3709 16.5903L24.8625 13.0296L27.2028 11.1885C27.9904 10.5689 28.6372 9.78884 29.1003 8.90017V8.90017C29.6257 7.89188 29.9 6.7717 29.9 5.63474V3.14799C29.9 2.51397 29.386 2 28.752 2H3.14839C2.51415 2 2 2.51415 2 3.14839V5.6105C2 6.7634 2.27807 7.89929 2.81063 8.92182V8.92182C3.26634 9.7968 3.89776 10.5683 4.66536 11.188L5.00312 11.4607" stroke="#D6FF92" stroke-width="2"/>
    <path d="M18.7401 22.4046V18.0231C18.7401 17.4708 18.2924 17.0231 17.7401 17.0231H13.7308C13.1786 17.0231 12.7308 17.4708 12.7308 18.0231V30.6169C12.7308 31.1692 13.1786 31.6169 13.7308 31.6169H14.0062C14.2493 31.6169 14.4841 31.5284 14.6666 31.3679L18.4004 28.0847C18.6163 27.8948 18.7401 27.6212 18.7401 27.3337V25.0953" stroke="#D6FF92" stroke-width="2"/>
</svg>
