<svg width="24" height="30" viewBox="0 0 24 30" fill="none" xmlns="http://www.w3.org/2000/svg">
    <path d="M23.8014 16.31C23.4027 18.4163 22.4186 20.3511 20.9734 21.8696L18.0288 25.0794C15.6176 27.7077 11.4596 27.6647 9.10323 24.9871L6.35988 21.8696C4.91474 20.3511 3.93058 18.4163 3.53187 16.31C3.13316 14.2037 3.33779 12.0205 4.1199 10.0364C4.902 8.05228 6.22645 6.35645 7.92576 5.16332C9.62506 3.9702 11.6229 3.33337 13.6666 3.33337C15.7104 3.33337 17.7082 3.9702 19.4075 5.16332C21.1068 6.35645 22.4313 8.05228 23.2134 10.0364C23.9955 12.0205 24.2001 14.2037 23.8014 16.31Z" fill="#4F5A41"/>
    <path d="M11.3333 0C9.09181 0 6.90063 0.67703 5.03687 1.94547C4.68569 2.18448 4.66154 2.6904 4.96775 2.98669L5.31934 3.32689C5.49775 3.49953 5.77115 3.51596 5.97576 3.37671C7.56161 2.2974 9.42605 1.72133 11.3333 1.72133C13.2406 1.72133 15.1051 2.2974 16.6909 3.37671C18.2768 4.45601 19.5128 5.99006 20.2427 7.78488C20.9725 9.57969 21.1635 11.5547 20.7914 13.46C20.4744 15.0832 19.761 16.5937 18.7228 17.8548C18.423 18.219 18.4197 18.7617 18.7497 19.0978C19.0797 19.434 19.6174 19.4359 19.9219 19.0757C21.194 17.5709 22.0667 15.753 22.4489 13.7958C22.8862 11.5566 22.6618 9.2355 21.804 7.12615C20.9462 5.01681 19.4935 3.21392 17.6298 1.94547C15.766 0.67703 13.5749 0 11.3333 0Z" fill="#D6FF92"/>
    <path d="M2.93197 6.72172C3.13633 6.35233 3.08828 5.88344 2.78647 5.59142C2.40774 5.22495 1.79556 5.28571 1.5332 5.74581C1.28074 6.18852 1.05654 6.64951 0.862704 7.12615C0.00491074 9.2355 -0.219527 11.5566 0.217772 13.7958C0.653975 16.0295 1.72906 18.0817 3.30756 19.6943L8.56229 25.4824C9.97562 27.0391 12.3835 27.0646 13.8282 25.5381L16.879 22.3146C17.2028 21.9724 17.193 21.4275 16.8571 21.0977C16.5211 20.7678 15.9862 20.7778 15.6623 21.12L12.6116 24.3434C11.841 25.1576 10.5568 25.144 9.80306 24.3137L4.52612 18.5012L4.51443 18.4893C3.16578 17.1156 2.24734 15.3654 1.87525 13.46C1.50316 11.5547 1.69413 9.57969 2.42401 7.78488C2.57276 7.41912 2.74252 7.06418 2.93197 6.72172Z" fill="#D6FF92"/>
    <circle cx="11.3333" cy="11.3334" r="3.25" stroke="#D6FF92" stroke-width="1.5"/>
</svg>
