<svg width="auto" height="100%" viewBox="0 0 29 27" fill="none" xmlns="http://www.w3.org/2000/svg">
    <g clip-path="url(#clip0_169_594)">
        <path d="M17.7999 7.86149C17.1887 8.46416 16.2061 8.46522 15.5945 7.86296V7.86296C13.0061 5.3141 8.2601 6.19368 6.54685 9.39817C5.74252 10.9054 5.56104 13.0815 7.02976 15.8587C8.34464 18.3438 10.9797 21.2856 15.6065 24.4892C16.2624 24.9433 17.1319 24.9433 17.7878 24.4892C22.4144 21.2856 25.0483 18.3438 26.3646 15.8587C27.8333 13.08 27.6533 10.9054 26.8475 9.39817C25.1342 6.19368 20.3882 5.31263 17.7999 7.86149V7.86149ZM17.781 26.2977C17.1368 26.7252 16.2575 26.7252 15.6133 26.2977C-6.37246 11.7099 9.54662 0.518168 16.4265 6.58411V6.58411C16.5797 6.71869 16.8129 6.71815 16.9678 6.58558V6.58558C23.8462 0.515289 39.7668 11.7084 17.781 26.2977Z" fill="#4F5A41"/>
        <path d="M17.7999 7.86149C17.1887 8.46416 16.2061 8.46522 15.5945 7.86296V7.86296C13.0061 5.3141 8.2601 6.19368 6.54685 9.39817C5.74252 10.9054 5.56104 13.0815 7.02976 15.8587C8.34464 18.3438 10.9797 21.2856 15.6065 24.4892C16.2624 24.9433 17.1319 24.9433 17.7878 24.4892C22.4144 21.2856 25.0483 18.3438 26.3646 15.8587C27.8333 13.08 27.6533 10.9054 26.8475 9.39817C25.1342 6.19368 20.3882 5.31263 17.7999 7.86149V7.86149Z" fill="#4F5A41"/>
        <path d="M10.9697 2.73337C10.0163 2.03379 9.2911 1.8667 7.7879 1.8667C4.41774 1.8667 1.88366 4.31332 1.84916 7.74983C1.7789 14.8832 7.38923 19.956 13.5387 24.2192C13.7082 24.337 13.9085 24.4 14.1136 24.4C14.3186 24.4 14.5189 24.337 14.6885 24.2192C15.8106 23.4412 16.4905 23.0729 17.5455 22.2333M13.3031 6.85003C15.3394 2.17003 18.8177 1.93892 20.3031 2.08337C23.6732 2.08337 26.3435 4.31332 26.378 7.74983C26.4268 12.7467 23.8491 16.662 20.0909 20.0667" stroke="#D6FF92" stroke-width="2" stroke-linecap="round" stroke-linejoin="round"/>
    </g>
    <defs>
        <clipPath id="clip0_169_594">
            <rect width="29" height="27" fill="white"/>
        </clipPath>
    </defs>
</svg>
