<svg width="29" height="30" viewBox="0 0 29 30" fill="none" xmlns="http://www.w3.org/2000/svg">
    <path d="M27.8906 29.1406V15.7109C27.8906 14.4453 27.3281 13.1797 26.2734 12.4063L16.7109 4.88281C16.4297 4.67187 16.0781 4.67187 15.8672 4.88281L6.30469 12.4063C5.32031 13.1797 4.6875 14.4453 4.6875 15.7109V29.1406C4.6875 29.5625 4.96875 29.8437 5.39062 29.8437H27.1875C27.6094 29.8437 27.8906 29.5625 27.8906 29.1406Z" fill="#4F5A41"/>
    <path d="M5.67187 7.20312L3.14063 9.24219C2.15625 10.0156 1.52344 11.2812 1.52344 12.5469V25.2734C1.52344 26.0469 2.15625 26.6797 2.92969 26.6797H16.9922" stroke="#D6FF92" stroke-width="2" stroke-miterlimit="10" stroke-linecap="round" stroke-linejoin="round"/>
    <path d="M20.8594 26.6797H23.3203C24.0937 26.6797 24.7266 26.0469 24.7266 25.2734V12.5469C24.7266 11.2813 24.1641 10.0156 23.1094 9.24219L13.5469 1.71875C13.2656 1.50781 12.9141 1.50781 12.7031 1.71875L9.46875 4.25" stroke="#D6FF92" stroke-width="2" stroke-miterlimit="10" stroke-linecap="round" stroke-linejoin="round"/>
    <path d="M9.25781 22.6016V16.8359C9.25781 16.4141 9.53906 16.1328 9.96094 16.1328H16.2188C16.6406 16.1328 16.9219 16.4141 16.9219 16.8359V26.6797" stroke="#D6FF92" stroke-width="2" stroke-miterlimit="10" stroke-linecap="round" stroke-linejoin="round"/>
</svg>
