<svg height="100%" viewBox="0 0 54 53" fill="none" xmlns="http://www.w3.org/2000/svg">
    <circle cx="31.5" cy="30.5" r="22.5" fill="#4F5A41"/>
    <path d="M46.1913 38.9737C49.2849 34.159 50.5563 28.3973 49.776 22.7279C48.9957 17.0584 46.2153 11.8544 41.9361 8.05441C37.6569 4.25441 32.1607 2.10861 26.4387 2.00401C20.7168 1.89942 15.1458 3.84292 10.7306 7.48399" stroke="#D6FF92" stroke-width="3" stroke-linecap="round"/>
    <path d="M6.68803 11.7506C3.11698 16.5904 1.49334 22.5946 2.13855 28.5746C2.78376 34.5545 5.65079 40.0742 10.172 44.0409C14.6932 48.0076 20.5391 50.132 26.5521 49.9937C32.5652 49.8553 38.3071 47.4643 42.6411 43.2939" stroke="#D6FF92" stroke-width="3" stroke-linecap="round"/>
    <path fill-rule="evenodd" clip-rule="evenodd" d="M12.6667 30C12.6667 30 10 30 10 32.9167C10 35.8334 12.6667 44.5834 26 44.5834C39.3333 44.5834 42 35.8334 42 32.9167C42 30 39.3333 30 39.3333 30L12.6667 30ZM14.8853 37.7817C13.0773 35.8042 12.6693 33.6459 12.6667 32.9284H39.3333C39.328 33.6459 38.9227 35.8042 37.1147 37.7817C35.376 39.6834 32.1067 41.6667 26 41.6667C19.896 41.6667 16.624 39.6834 14.8853 37.7817Z" fill="#D6FF92"/>
    <circle cx="26" cy="18" r="7.5" stroke="#D6FF92" stroke-width="3"/>
</svg>
