<svg height="100%" viewBox="0 0 158 126" fill="none" xmlns="http://www.w3.org/2000/svg">
    <path d="M134.216 118.706C126.451 123.477 117.535 126 108.444 126H59.5568C49.1596 125.979 40.6156 119.89 34.3953 112.549C28.1642 105.196 25.2196 95.8776 26.1775 86.5436C27.1354 77.2097 31.9214 68.583 39.5348 62.4678C45.9386 57.3241 54.5566 53.9385 63.101 53.296C66.338 46.9339 71.249 42.1135 77.0194 37.3387C84.0489 31.522 92.5288 27.7685 101.531 26.4889C110.533 25.2093 119.711 26.453 128.06 30.0838C136.408 33.7145 143.606 39.5925 148.866 47.0744C154.125 54.5563 157.243 63.3537 157.879 72.5039C158.514 81.6541 156.643 90.8044 152.47 98.9534C148.296 107.102 141.981 113.936 134.216 118.706Z" fill="#7E8970"/>
    <path d="M45.101 35.296C48.338 28.9339 53.249 24.1135 59.0194 19.3387C66.0489 13.522 74.5288 9.76852 83.5311 8.48892C92.5334 7.20933 101.711 8.45298 110.06 12.0838C118.408 15.7145 125.606 21.5925 130.866 29.0744C136.125 36.5563 139.243 45.3537 139.879 54.5039C140.514 63.6541 138.643 72.8044 134.47 80.9534C130.296 89.1024 123.981 95.936 116.216 100.706C108.451 105.477 99.5353 108 90.4442 108H41.5568M45.101 35.296C44.3947 36.6842 43.7681 38.1458 43.2297 39.6964M45.101 35.296C36.5566 35.9385 27.9386 39.3241 21.5348 44.4678C13.9214 50.583 9.13535 59.2097 8.17749 68.5436C7.21962 77.8776 10.1642 87.1958 16.3953 94.5495C22.6156 101.89 31.1596 107.979 41.5568 108M45.101 35.296C46.7148 35.1746 48.3259 35.1511 49.9189 35.2321M41.5568 108H40.5541M41.5568 108C41.5748 108 41.5928 108 41.6108 108" stroke="#CFFF92" stroke-width="15"/>
</svg>
