<svg height="100%" viewBox="0 0 174 145" fill="none" xmlns="http://www.w3.org/2000/svg">
    <path d="M148.97 55.769C146.971 45.6932 141.802 36.521 134.217 29.5936C126.632 22.6662 117.03 18.3469 106.815 17.2672C96.5996 16.1875 86.3068 18.404 77.4415 23.5927C68.5761 28.7815 61.6031 36.6702 57.5421 46.1055C52.9879 45.5809 48.3746 45.9913 43.9845 47.3116C39.5944 48.6319 35.52 50.8344 32.0108 53.7841C28.5015 56.7339 25.6312 60.3688 23.5757 64.4664C21.5201 68.5641 20.3225 73.0381 20.0562 77.6147C19.7898 82.1912 20.4604 86.774 22.0268 91.0824C23.5933 95.3908 26.0226 99.3341 29.166 102.671C32.3094 106.008 36.1009 108.668 40.3081 110.489C44.5154 112.309 49.0501 113.252 53.6344 113.259H145.072C152.398 113.267 159.453 110.491 164.808 105.492C170.163 100.494 173.418 93.6464 173.914 86.3375C174.409 79.0286 172.108 71.8046 167.477 66.1288C162.846 60.4529 156.23 56.7496 148.97 55.769Z" fill="#7E8970"/>
    <path fill-rule="evenodd" clip-rule="evenodd" d="M128.971 38.7685C126.972 28.6927 121.802 19.5206 114.217 12.5931C106.633 5.66572 97.0308 1.34639 86.8155 0.266689C76.6003 -0.813017 66.3075 1.40353 57.4421 6.59225C48.5768 11.781 41.6038 19.6697 37.5428 29.105C32.9886 28.5804 28.3753 28.9908 23.9852 30.3111C19.5952 31.6314 15.5208 33.8339 12.0115 36.7836C8.50225 39.7334 5.63196 43.3683 3.57639 47.466C1.52082 51.5636 0.32321 56.0376 0.0568944 60.6142C-0.209421 65.1908 0.461157 69.7735 2.02757 74.0819C3.59399 78.3903 6.02328 82.3336 9.16672 85.6705C12.3102 89.0074 16.1016 91.6676 20.3089 93.4882C24.5161 95.3088 29.0508 96.2515 33.6351 96.2587H125.073C132.398 96.267 139.453 93.4907 144.809 88.492C150.164 83.4933 153.419 76.646 153.914 69.3371C154.41 62.0282 152.109 54.8041 147.478 49.1283C142.846 43.4524 136.23 39.7491 128.971 38.7685ZM107.43 19.433C100.37 13.1205 91.2307 9.63169 81.7601 9.63366C73.6615 9.6346 65.7693 12.1881 59.205 16.9311C52.6407 21.6742 47.7384 28.3656 45.1947 36.0543C44.8151 37.209 44.0127 38.1773 42.9486 38.7647C41.8845 39.3521 40.6375 39.5151 39.4582 39.2209C36.1525 38.3982 32.7098 38.2868 29.3578 38.894C26.0058 39.5013 22.821 40.8133 20.0139 42.7433C17.2069 44.6734 14.8416 47.1775 13.0747 50.0899C11.3077 53.0023 10.1792 56.2568 9.76398 59.6379C9.34872 63.019 9.6561 66.4498 10.6658 69.7033C11.6755 72.9567 13.3645 75.9587 15.6211 78.5107C17.8776 81.0626 20.6503 83.1063 23.7557 84.5067C26.8612 85.907 30.2285 86.632 33.6351 86.6337H125.073C130.178 86.6337 135.074 84.6055 138.684 80.9955C142.294 77.3854 144.323 72.4891 144.323 67.3837C144.323 62.2782 142.294 57.3819 138.684 53.7719C135.074 50.1618 130.178 48.1337 125.073 48.1337H124.842C123.652 48.1409 122.502 47.7071 121.613 46.9162C120.724 46.1252 120.16 45.0331 120.029 43.8505C118.975 34.4387 114.49 25.7455 107.43 19.433Z" fill="#D6FF92"/>
    <path d="M39.9683 106.124C40.5683 106.324 41.1229 106.641 41.6005 107.055C42.0782 107.47 42.4694 107.974 42.7519 108.54C43.0343 109.106 43.2025 109.722 43.2468 110.353C43.291 110.984 43.2105 111.617 43.0098 112.217L38.1973 126.654C37.7592 127.819 36.8866 128.769 35.763 129.305C34.6393 129.84 33.3518 129.92 32.171 129.526C30.9901 129.132 30.0077 128.296 29.43 127.194C28.8523 126.091 28.7243 124.808 29.0728 123.613L33.8853 109.175C34.2875 107.964 35.1542 106.962 36.295 106.39C37.4357 105.818 38.7571 105.722 39.9683 106.124Z" fill="#D6FF92"/>
    <path d="M64.0308 120.562C64.6308 120.762 65.1854 121.078 65.663 121.493C66.1407 121.907 66.5319 122.412 66.8144 122.978C67.0968 123.544 67.265 124.159 67.3093 124.79C67.3535 125.421 67.273 126.055 67.0723 126.654L62.2598 141.092C61.8217 142.257 60.9491 143.207 59.8255 143.742C58.7018 144.278 57.4143 144.357 56.2335 143.963C55.0526 143.57 54.0702 142.734 53.4925 141.631C52.9148 140.529 52.7868 139.245 53.1353 138.05L57.9478 123.613C58.35 122.402 59.2167 121.4 60.3575 120.828C61.4982 120.255 62.8196 120.16 64.0308 120.562Z" fill="#D6FF92"/>
    <path d="M97.7183 106.124C98.3183 106.324 98.8729 106.641 99.3505 107.055C99.8282 107.47 100.219 107.974 100.502 108.54C100.784 109.106 100.953 109.722 100.997 110.353C101.041 110.984 100.961 111.617 100.76 112.217L95.9473 126.654C95.5092 127.819 94.6367 128.769 93.513 129.305C92.3893 129.84 91.1018 129.92 89.921 129.526C88.7401 129.132 87.7577 128.296 87.18 127.194C86.6023 126.091 86.4743 124.808 86.8228 123.613L91.6353 109.175C92.0375 107.964 92.9042 106.962 94.045 106.39C95.1857 105.818 96.5071 105.722 97.7183 106.124Z" fill="#D6FF92"/>
    <path d="M121.781 120.562C122.381 120.762 122.935 121.078 123.413 121.493C123.891 121.907 124.282 122.412 124.564 122.978C124.847 123.544 125.015 124.159 125.059 124.79C125.104 125.421 125.023 126.055 124.822 126.654L120.01 141.092C119.829 141.713 119.524 142.292 119.114 142.793C118.704 143.294 118.197 143.707 117.623 144.007C117.05 144.308 116.422 144.489 115.777 144.541C115.131 144.593 114.482 144.515 113.868 144.31C113.254 144.105 112.687 143.779 112.202 143.35C111.717 142.921 111.324 142.399 111.045 141.815C110.767 141.23 110.609 140.596 110.582 139.949C110.554 139.302 110.657 138.656 110.885 138.05L115.698 123.613C116.1 122.402 116.967 121.4 118.107 120.828C119.248 120.255 120.57 120.16 121.781 120.562Z" fill="#D6FF92"/>
</svg>
