<svg height="100%" viewBox="0 0 168 173" fill="none" xmlns="http://www.w3.org/2000/svg">
    <path fill-rule="evenodd" clip-rule="evenodd" d="M114.368 81.0225C122.438 79.2519 130.844 79.7887 138.623 82.5717C146.402 85.3546 153.241 90.2713 158.356 96.759C163.471 103.247 166.656 111.044 167.547 119.257C168.438 127.47 166.998 135.769 163.392 143.202C159.786 150.635 154.16 156.903 147.158 161.289C140.158 165.674 132.064 167.999 123.804 168H77.3035C70.439 168 65.1139 167.226 59.0817 164.344C53.1019 161.486 48.047 157.003 44.4957 151.408C40.9444 145.812 39.04 139.33 39.0006 132.703C38.9613 126.076 40.7884 119.571 44.2733 113.934C47.7581 108.298 52.7597 103.756 58.7056 100.829C64.6515 97.9019 71.3014 96.7083 77.8941 97.3842C80.5358 97.6551 83.8276 98.3024 87.1282 99.242C88.9007 96.9007 90.8286 94.7032 92.9901 92.5839C98.8893 86.7997 106.298 82.7931 114.368 81.0225Z" fill="#7E8970"/>
    <path d="M108.496 144C115.35 144 122.066 142.071 127.874 138.433C133.683 134.795 138.35 129.595 141.341 123.429C144.332 117.262 145.526 110.379 144.788 103.566C144.049 96.7522 141.407 90.2845 137.163 84.9026C132.92 79.5207 127.247 75.4421 120.793 73.1334C114.34 70.8248 107.367 70.3794 100.672 71.8482C93.9775 73.3171 87.8315 76.6409 82.9378 81.4391C78.0441 86.2374 74.5004 91.5 71.0004 98.5" stroke="#CFFF92" stroke-width="15"/>
    <path d="M80.0004 94.5C75.8826 91.2928 67.018 88.8774 61.826 88.3451C56.634 87.8128 51.3971 88.7528 46.7148 91.0577C42.0325 93.3626 38.0938 96.9393 35.3495 101.378C32.6053 105.817 31.1664 110.939 31.1974 116.158C31.2284 121.377 32.7281 126.482 35.5249 130.889C38.3217 135.296 42.3026 138.826 47.012 141.076C51.7214 143.327 55.8464 144 62.0004 144C67.3464 144 101.501 144 108.5 144" stroke="#CFFF92" stroke-width="15"/>
    <path d="M83 49.3869C79.8903 45.41 75.5534 42.4842 70.6114 41.029C65.6693 39.5738 60.376 39.6641 55.4904 41.2868C50.6049 42.9095 46.3781 45.9813 43.4164 50.0617C40.4546 54.1421 38.91 59.0215 39.0041 64" stroke="#CFFF92" stroke-width="15" stroke-linecap="round"/>
    <circle cx="8" cy="64" r="8" fill="#CFFF92"/>
    <circle cx="104" cy="23" r="8" fill="#CFFF92"/>
    <circle cx="64" cy="8" r="8" fill="#CFFF92"/>
    <circle cx="24" cy="24" r="8" fill="#CFFF92"/>
</svg>
