<svg height="100%" viewBox="0 0 59 59" fill="none" xmlns="http://www.w3.org/2000/svg">
    <path d="M34.4167 46.0938C40.8657 46.0938 46.0938 40.8658 46.0938 34.4167C46.0938 27.9676 40.8657 22.7396 34.4167 22.7396C27.9676 22.7396 22.7396 27.9676 22.7396 34.4167C22.7396 40.8658 27.9676 46.0938 34.4167 46.0938Z" fill="#4F5A41"/>
    <path d="M29.5 6.76038V10.4479" stroke="#D6FF92" stroke-width="4" stroke-miterlimit="10" stroke-linecap="round"/>
    <path d="M13.3979 13.3979L15.9792 15.9792" stroke="#D6FF92" stroke-width="4" stroke-miterlimit="10" stroke-linecap="round"/>
    <path d="M6.76042 29.5H10.4479" stroke="#D6FF92" stroke-width="4" stroke-miterlimit="10" stroke-linecap="round"/>
    <path d="M13.3979 45.6021L15.9792 43.0209" stroke="#D6FF92" stroke-width="4" stroke-miterlimit="10" stroke-linecap="round"/>
    <path d="M29.5 52.2396V48.5521" stroke="#D6FF92" stroke-width="4" stroke-miterlimit="10" stroke-linecap="round"/>
    <path d="M45.6021 45.6021L43.0208 43.0209" stroke="#D6FF92" stroke-width="4" stroke-miterlimit="10" stroke-linecap="round"/>
    <path d="M52.2396 29.5H48.5521" stroke="#D6FF92" stroke-width="4" stroke-miterlimit="10" stroke-linecap="round"/>
    <path d="M45.6021 13.3979L43.0208 15.9792" stroke="#D6FF92" stroke-width="4" stroke-miterlimit="10" stroke-linecap="round"/>
    <path d="M33.0646 40.6854C31.9583 40.9312 30.7292 41.1771 29.5 41.1771C23.1083 41.1771 17.8229 35.8917 17.8229 29.5C17.8229 28.1479 18.0688 26.7958 18.5604 25.5667" stroke="#D6FF92" stroke-width="4" stroke-miterlimit="10" stroke-linecap="round"/>
    <path d="M24.78 18.6833C26.255 18.0687 27.73 17.7 29.4508 17.7C35.8425 17.7 41.1279 22.9854 41.1279 29.377C41.1279 30.7291 40.8821 32.0812 40.5133 33.1875" stroke="#D6FF92" stroke-width="4" stroke-miterlimit="10" stroke-linecap="round"/>
</svg>
